<?xml version="1.0" encoding="utf-8" ?>
<svg baseProfile="full" height="64px" version="1.1" width="398px" xmlns="http://www.w3.org/2000/svg" xmlns:ev="http://www.w3.org/2001/xml-events" xmlns:xlink="http://www.w3.org/1999/xlink"><defs /><path d="M 48 64 L 48 60 L 52 60 L 52 56 L 56 56 L 56 40 L 60 40 L 60 36 L 64 36 L 64 16 L 56 16 L 56 4 L 52 4 L 52 0 L 4 0 L 4 4 L 0 4 L 0 60 L 4 60 L 4 64 L 24 64 L 24 60 L 28 60 L 28 64 Z M 44 60 L 44 56 L 48 56 L 48 52 L 52 52 L 52 36 L 56 36 L 56 20 L 60 20 L 60 32 L 52 32 L 52 8 L 48 8 L 48 4 L 8 4 L 8 8 L 4 8 L 4 56 L 8 56 L 8 60 L 20 60 L 20 56 L 32 56 L 32 60 Z M 385 56 L 385 27 L 366 27 L 366 18 L 376 18 L 376 37 L 366 37 L 366 46 L 395 46 L 395 18 L 385 18 L 385 8 L 357 8 L 357 18 L 347 18 L 347 46 L 357 46 L 357 56 Z M 328 56 L 328 8 L 299 8 L 299 18 L 289 18 L 289 27 L 299 27 L 299 37 L 289 37 L 289 46 L 299 46 L 299 56 Z M 212 56 L 212 37 L 222 37 L 222 46 L 193 46 L 193 18 L 222 18 L 222 27 L 212 27 L 212 8 L 183 8 L 183 18 L 174 18 L 174 46 L 183 46 L 183 56 Z M 164 56 L 164 46 L 154 46 L 154 18 L 164 18 L 164 8 L 126 8 L 126 18 L 135 18 L 135 46 L 126 46 L 126 56 Z M 97 56 L 97 18 L 106 18 L 106 8 L 68 8 L 68 18 L 77 18 L 77 56 Z M 32 48 L 32 40 L 36 40 L 36 44 L 16 44 L 16 40 L 20 40 L 20 48 Z M 337 46 L 337 37 L 308 37 L 308 46 Z M 270 37 L 270 27 L 241 27 L 241 37 Z M 44 36 L 44 16 L 8 16 L 8 36 Z M 36 32 L 36 20 L 32 20 L 32 32 Z M 20 32 L 20 20 L 16 20 L 16 32 Z M 337 27 L 337 18 L 308 18 L 308 27 Z" fill="rgb(244, 244, 244)" fill-rule="evenodd" /><path d="M 388 59 L 388 49 L 398 49 L 398 15 L 388 15 L 388 5 L 354 5 L 354 15 L 344 15 L 344 49 L 354 49 L 354 59 Z M 331 59 L 331 49 L 340 49 L 340 34 L 331 34 L 331 30 L 340 30 L 340 15 L 331 15 L 331 5 L 296 5 L 296 15 L 286 15 L 286 30 L 296 30 L 296 34 L 286 34 L 286 49 L 296 49 L 296 59 Z M 215 59 L 215 49 L 225 49 L 225 34 L 209 34 L 209 43 L 196 43 L 196 21 L 209 21 L 209 30 L 225 30 L 225 15 L 215 15 L 215 5 L 180 5 L 180 15 L 171 15 L 171 49 L 180 49 L 180 59 Z M 167 59 L 167 43 L 157 43 L 157 21 L 167 21 L 167 5 L 123 5 L 123 21 L 132 21 L 132 43 L 123 43 L 123 59 Z M 100 59 L 100 21 L 109 21 L 109 5 L 65 5 L 65 21 L 74 21 L 74 59 Z M 385 56 L 385 27 L 366 27 L 366 18 L 376 18 L 376 37 L 366 37 L 366 46 L 395 46 L 395 18 L 385 18 L 385 8 L 357 8 L 357 18 L 347 18 L 347 46 L 357 46 L 357 56 Z M 328 56 L 328 8 L 299 8 L 299 18 L 289 18 L 289 27 L 299 27 L 299 37 L 289 37 L 289 46 L 299 46 L 299 56 Z M 212 56 L 212 37 L 222 37 L 222 46 L 193 46 L 193 18 L 222 18 L 222 27 L 212 27 L 212 8 L 183 8 L 183 18 L 174 18 L 174 46 L 183 46 L 183 56 Z M 164 56 L 164 46 L 154 46 L 154 18 L 164 18 L 164 8 L 126 8 L 126 18 L 135 18 L 135 46 L 126 46 L 126 56 Z M 97 56 L 97 18 L 106 18 L 106 8 L 68 8 L 68 18 L 77 18 L 77 56 Z M 48 56 L 48 52 L 4 52 L 4 56 Z M 337 46 L 337 37 L 308 37 L 308 46 Z M 382 43 L 382 30 L 379 30 L 379 40 L 369 40 L 369 43 Z M 325 43 L 325 40 L 311 40 L 311 43 Z M 273 40 L 273 24 L 238 24 L 238 40 Z M 270 37 L 270 27 L 241 27 L 241 37 Z M 337 27 L 337 18 L 308 18 L 308 27 Z M 373 24 L 373 21 L 369 21 L 369 24 Z M 325 24 L 325 21 L 311 21 L 311 24 Z M 44 16 L 44 12 L 8 12 L 8 16 Z M 48 8 L 48 4 L 8 4 L 8 8 Z" fill="rgb(41, 54, 111)" fill-rule="evenodd" /><path d="M 48 52 L 48 8 L 4 8 L 4 52 Z M 32 48 L 32 40 L 36 40 L 36 44 L 16 44 L 16 40 L 20 40 L 20 48 Z M 44 36 L 44 12 L 8 12 L 8 36 Z" fill="rgb(65, 166, 246)" fill-rule="evenodd" /><path d="M 44 60 L 44 56 L 32 56 L 32 60 Z M 20 60 L 20 56 L 8 56 L 8 60 Z M 52 52 L 52 36 L 56 36 L 56 20 L 60 20 L 60 32 L 52 32 L 52 8 L 48 8 L 48 52 Z M 36 32 L 36 20 L 32 20 L 32 32 Z M 20 32 L 20 20 L 16 20 L 16 32 Z" fill="rgb(26, 28, 44)" fill-rule="evenodd" /></svg>